<svg xmlns="http://www.w3.org/2000/svg" viewBox="0 0 1680 640">
  <defs>
    <linearGradient id="bg" x1="0" y1="0" x2="1" y2="1">
      <stop offset="0" stop-color="#0a1628"/>
      <stop offset="0.55" stop-color="#12305c"/>
      <stop offset="1" stop-color="#1d4f8f"/>
    </linearGradient>
    <linearGradient id="wave1" x1="0" y1="0" x2="0" y2="1">
      <stop offset="0" stop-color="#2997ff" stop-opacity="0.55"/>
      <stop offset="1" stop-color="#2997ff" stop-opacity="0"/>
    </linearGradient>
    <linearGradient id="wave2" x1="0" y1="0" x2="0" y2="1">
      <stop offset="0" stop-color="#7cc0ff" stop-opacity="0.35"/>
      <stop offset="1" stop-color="#7cc0ff" stop-opacity="0"/>
    </linearGradient>
  </defs>
  <rect width="1680" height="640" fill="url(#bg)"/>
  <path d="M0 430 C 280 360, 420 480, 700 420 S 1150 320, 1400 400 S 1680 380, 1680 380 L1680 640 L0 640 Z" fill="url(#wave1)"/>
  <path d="M0 500 C 300 440, 520 560, 840 500 S 1300 420, 1680 470 L1680 640 L0 640 Z" fill="url(#wave2)"/>
  <circle cx="1320" cy="170" r="110" fill="#2997ff" opacity="0.18"/>
  <circle cx="1380" cy="130" r="60" fill="#7cc0ff" opacity="0.22"/>
  <g stroke="#9fceff" stroke-opacity="0.5" stroke-width="3" fill="none" stroke-linecap="round">
    <path d="M180 300 L360 220 L520 260 L720 160 L900 200 L1080 120"/>
  </g>
  <g fill="#cfe6ff" opacity="0.9">
    <circle cx="180" cy="300" r="6"/>
    <circle cx="360" cy="220" r="6"/>
    <circle cx="520" cy="260" r="6"/>
    <circle cx="720" cy="160" r="6"/>
    <circle cx="900" cy="200" r="6"/>
    <circle cx="1080" cy="120" r="6"/>
  </g>
</svg>
